<svg id="Glyph" height="512" viewBox="0 0 64 64" width="512" xmlns="http://www.w3.org/2000/svg"><path d="m31.03 44.73-19.77-11.7v9.14a5.276 5.276 0 0 0 2.24 4.37q9.21 6.075 18.49 6.07t18.5-6.07a5.29 5.29 0 0 0 2.24-4.37v-9.14l-18.62 11.65a3.752 3.752 0 0 1 -3.08.05z"/><path d="m58.916 44.267v-17.457l3.614-2.26a1 1 0 0 0 -.1-1.75l-30.88-14.59a1 1 0 0 0 -.89.01l-29.12 14.96a1.009 1.009 0 0 0 -.05 1.75l30.52 18.06a1.009 1.009 0 0 0 1.04-.01l23.866-14.92v16.177l-3.816 10.303a1.005 1.005 0 0 0 .94 1.35h7.74a1.005 1.005 0 0 0 .94-1.35z"/></svg>