<?xml version="1.0"?>
<svg width="64" height="64" xmlns="http://www.w3.org/2000/svg" xmlns:svg="http://www.w3.org/2000/svg">
 <g class="layer">
  <title>Layer 1</title>
  <path d="m31.03,44.73l-19.77,-11.7l0,9.14a5.28,5.28 0 0 0 2.24,4.37q9.21,6.08 18.49,6.07t18.5,-6.07a5.29,5.29 0 0 0 2.24,-4.37l0,-9.14l-18.62,11.65a3.75,3.75 0 0 1 -3.08,0.05z" fill="#ffffff" id="svg_1"/>
  <path d="m59.92,44.27l0,-17.46l3.61,-2.26a1,1 0 0 0 -0.1,-1.75l-30.88,-14.59a1,1 0 0 0 -0.89,0.01l-29.12,14.96a1.01,1.01 0 0 0 -0.05,1.75l30.52,18.06a1.01,1.01 0 0 0 1.04,-0.01l23.87,-14.92l0,16.18l-3.82,10.3a1,1 0 0 0 0.94,1.35l7.74,0a1,1 0 0 0 0.94,-1.35l-3.8,-10.27z" fill="#ffffff" id="svg_2" transform="matrix(1 0 0 1 0 0)"/>
 </g>
</svg>